<?xml version="1.0" encoding="UTF-8"?>
<svg width="23px" height="24px" viewBox="0 0 23 24" version="1.1" xmlns="http://www.w3.org/2000/svg" xmlns:xlink="http://www.w3.org/1999/xlink">
    <!-- Generator: Sketch 46.2 (44496) - http://www.bohemiancoding.com/sketch -->
    <title>Treehouse</title>
    <desc>Created with Sketch.</desc>
    <defs></defs>
    <g id="Page-1" stroke="none" stroke-width="1" fill="none" fill-rule="evenodd">
        <g id="if_social_media_social_media_logo_treehouse_1915986" transform="translate(0.000000, -1.000000)" fill-rule="nonzero" fill="#5FCF80">
            <path d="M21.8,6.14 L20.8,5.58 C20.0465358,5.15731632 19.106834,5.26620881 18.47,5.85 C17.9432164,6.36609183 17.4520866,6.91735993 17,7.5 C16.1463967,8.48116403 15.6218061,9.7052086 15.5,11 C15.5,12.05 16.73,14 17.61,14.84 C18.0118186,15.227706 18.1132738,15.8323792 17.86,16.33 C17.6754132,16.6849543 17.3320727,16.9301054 16.936418,16.9894536 C16.5407634,17.0488018 16.1406062,16.9151753 15.86,16.63 C15.4605488,16.2325507 15.3822615,15.6144933 15.67,15.13 C15.7446682,14.9892922 15.7446682,14.8207078 15.67,14.68 C15.41,14.13 15,13.49 14.49,13.49 C13.75,13.49 12.81,16.49 12.27,17.87 C12.2149053,18.008039 12.2149053,18.161961 12.27,18.3 C12.4206641,18.5851522 12.4733716,18.9119388 12.42,19.23 C12.3537258,20.0584271 11.6284271,20.6762741 10.8,20.61 C9.9715729,20.5437258 9.35372586,19.8184271 9.42,18.99 C9.42152233,18.5311795 9.63575951,18.0990114 10,17.82 C10.0522765,17.7825157 10.0964854,17.7349061 10.13,17.68 C10.7678833,16.2464656 11.2928133,14.7652937 11.7,13.25 C11.7329152,13.1323481 11.6911985,13.006488 11.5945276,12.9317878 C11.4978567,12.8570876 11.3655436,12.84847 11.26,12.91 C10.53,13.38 9.35,14.13 8.5,14.64 C8.41660836,14.6950779 8.35342229,14.7758157 8.32,14.87 C8.13302022,15.316787 7.65273724,15.5653545 7.18,15.46 C6.62771525,15.3937258 6.23372583,14.8922847 6.3,14.34 C6.36627417,13.7877153 6.86771525,13.3937258 7.42,13.46 C8.36,13.46 9.69,12.23 10.61,11.29 C10.6844531,11.2124771 10.701021,11.0960414 10.6511472,11.0008277 C10.6012733,10.9056139 10.496122,10.852936 10.39,10.87 C9.76729143,10.9564652 9.13836728,10.9899186 8.51,10.97 C8.37393935,10.9655036 8.24261333,11.0202228 8.15,11.12 C7.90171015,11.4035094 7.51511727,11.5233532 7.15,11.43 C6.59771527,11.3637258 6.20372586,10.8622847 6.27000003,10.31 C6.3362742,9.75771527 6.83771526,9.36372585 7.39,9.43 C9.70726971,9.84599504 12.0536941,8.86831819 13.39,6.93 C14.0276564,6.14451233 14.5682281,5.28496975 15,4.37 C15.3716036,3.42746993 15.0026894,2.35465067 14.13,1.84 L13,1.19 C12.6895195,1.03878924 12.3443029,0.973198104 12,1 C11.6556971,0.973198104 11.3104805,1.03878924 11,1.19 L2.18,6.19 C1.45109932,6.59407678 0.993526251,7.35669856 0.98,8.19 L0.98,17.86 C0.993526251,18.6933014 1.45109932,19.4559232 2.18,19.86 L10.8,24.69 C11.5364501,25.1013608 12.4335499,25.1013608 13.17,24.69 L21.79,19.85 C22.5189007,19.4459232 22.9764737,18.6833014 22.99,17.85 L22.99,8.17 C22.9892525,7.32802575 22.5343133,6.5519529 21.8,6.14 Z" id="Treehouse"></path>
        </g>
    </g>
</svg>